<?xml version="1.0" standalone="no"?>
<!DOCTYPE svg PUBLIC "-//W3C//DTD SVG 20010904//EN"
 "http://www.w3.org/TR/2001/REC-SVG-20010904/DTD/svg10.dtd">
<svg version="1.0" xmlns="http://www.w3.org/2000/svg"
 width="167.000000pt" height="167.000000pt" viewBox="0 0 167.000000 167.000000"
 preserveAspectRatio="xMidYMid meet">
<metadata>
Created by potrace 1.14, written by Peter Selinger 2001-2017
</metadata>
<g transform="translate(0.000000,167.000000) scale(0.100000,-0.100000)"
fill="#000000" stroke="none">
<path d="M1130 1637 c-17 -9 -24 -20 -23 -35 3 -26 -5 -27 -34 -7 -16 12 -27
12 -52 4 -29 -10 -31 -14 -31 -60 l0 -49 -46 29 c-44 29 -47 29 -86 15 -53
-18 -68 -18 -68 4 0 10 -27 33 -71 60 -67 41 -71 42 -99 27 -16 -8 -28 -21
-26 -28 1 -6 1 -9 -1 -4 -7 12 -30 8 -43 -8 -6 -8 -15 -14 -18 -13 -22 2 -33
-4 -29 -15 3 -8 1 -20 -5 -28 -8 -11 -9 -11 -4 3 6 21 -10 33 -27 19 -16 -13
-16 -103 0 -108 6 -2 14 1 18 6 3 6 15 11 26 11 10 0 19 5 19 10 0 6 6 10 13
9 36 -4 47 2 48 29 1 24 2 25 7 5 5 -17 11 -20 22 -13 8 5 20 10 25 9 6 0 -2
-7 -17 -15 -16 -8 -28 -19 -28 -25 0 -6 -5 -7 -11 -4 -13 9 -70 -13 -86 -33
-9 -11 -13 -12 -13 -4 0 9 -5 10 -18 3 -14 -8 -18 -21 -16 -63 1 -29 2 -54 3
-56 0 -1 11 3 23 10 23 12 29 14 49 17 5 0 8 5 4 10 -3 5 -1 13 5 16 6 4 9 2
8 -3 -2 -6 0 -10 5 -11 26 -4 37 1 38 17 0 9 3 12 5 6 3 -7 13 -10 23 -7 11 3
28 0 40 -6 18 -10 21 -21 21 -72 0 -44 -3 -60 -12 -56 -8 2 -13 24 -13 60 -1
31 -4 59 -7 63 -11 11 -58 -5 -54 -19 1 -6 1 -9 -1 -4 -7 12 -31 8 -47 -9 -11
-10 -16 -11 -16 -3 0 8 -5 7 -17 -3 -10 -9 -23 -13 -30 -11 -17 6 -31 -27 -28
-67 2 -19 -3 -45 -11 -57 -18 -28 -18 -53 -1 -53 10 0 13 -22 13 -95 -1 -52 3
-95 8 -95 4 0 5 -8 1 -17 -12 -31 -13 -49 -5 -63 7 -12 12 -12 27 2 21 18 83
51 83 44 0 -3 -14 -13 -32 -22 -17 -9 -36 -20 -42 -25 -6 -5 -28 -22 -49 -38
-34 -27 -36 -30 -18 -36 22 -7 69 -65 52 -65 -5 0 -12 8 -15 18 -3 9 -15 23
-27 31 -19 11 -21 11 -16 -3 4 -9 1 -13 -6 -10 -18 7 -59 -35 -53 -53 3 -8 6
-17 6 -19 0 -2 7 -4 16 -4 10 0 14 -6 10 -15 -3 -8 -1 -15 4 -15 6 0 10 5 10
12 0 9 3 9 11 1 13 -13 8 -59 -6 -55 -5 2 -9 10 -7 18 2 8 -1 14 -7 14 -10 0
-8 -40 2 -57 4 -6 -2 -13 -13 -16 -41 -11 -17 -72 27 -72 35 0 37 -7 15 -45
-20 -34 -33 -39 -27 -10 2 11 0 20 -4 20 -4 0 -8 -20 -7 -45 1 -25 4 -45 9
-45 4 0 7 6 8 13 0 6 4 2 9 -10 6 -16 18 -23 35 -23 15 0 24 -4 20 -10 -3 -5
-1 -10 6 -10 7 0 2 -11 -11 -25 -24 -25 -46 -29 -65 -10 -5 6 -9 8 -8 6 2 -2
-2 -10 -7 -16 -15 -18 -2 -42 26 -49 32 -8 74 3 74 20 0 19 -16 18 -24 -1 -7
-18 -35 -19 -59 -1 -16 12 -14 13 15 12 18 -2 39 2 46 7 9 7 18 6 28 -5 18
-18 8 -48 -17 -49 -10 -1 -29 -2 -41 -3 -32 -3 -58 11 -68 37 l-9 22 0 -22
c-1 -27 34 -53 70 -53 15 0 45 7 68 15 22 8 41 11 42 7 1 -4 1 -20 0 -37 -1
-39 17 -60 53 -63 32 -2 47 -17 39 -38 -6 -15 26 -33 64 -36 15 -1 33 -8 38
-16 7 -9 46 -14 122 -18 101 -5 113 -3 121 13 6 10 11 23 11 28 1 6 11 10 24
10 13 0 35 8 50 18 14 9 35 17 46 17 11 0 29 14 41 30 12 17 18 30 14 30 -3 0
-2 6 4 13 12 14 6 53 -11 75 -5 6 -7 13 -3 13 9 2 44 6 61 8 38 3 36 79 -2
119 -21 22 -15 34 15 31 15 -2 33 0 40 4 21 13 14 62 -13 91 -30 33 -26 65 8
64 41 -2 47 2 47 30 0 20 -11 38 -34 60 -40 36 -39 67 1 70 36 3 43 10 43 43
0 25 -6 33 -34 44 -27 12 -46 32 -46 49 0 2 18 11 40 21 35 16 39 21 36 48 -4
30 -28 57 -52 57 -25 0 -25 20 1 47 40 43 31 81 -24 109 l-45 22 41 11 c37 10
42 15 41 41 -1 20 -7 32 -20 35 -20 7 -20 9 -19 227 l0 117 -35 20 c-41 25
-42 25 -74 8z m72 -29 c18 -14 27 -66 15 -85 -4 -6 -3 -14 3 -18 6 -4 7 -11 3
-18 -3 -6 -6 -53 -5 -104 1 -87 0 -93 -17 -83 -10 5 -21 6 -25 3 -7 -7 -7 -13
-9 175 -3 145 0 156 35 130z m-523 -12 c12 -14 12 -96 1 -96 -16 0 -27 27 -29
68 -1 43 8 52 28 28z m41 -67 c0 -31 -4 -48 -10 -44 -12 7 -10 95 2 95 4 0 8
-23 8 -51z m374 29 c18 -25 21 -53 6 -43 -16 10 -42 65 -31 65 6 0 17 -10 25
-22z m-548 -27 c-1 -16 -4 -32 -7 -35 -4 -4 -5 32 0 57 3 19 8 4 7 -22z m212
21 c15 -10 24 -70 11 -77 -5 -4 -10 11 -10 32 l-2 38 -7 -35 c-9 -41 -11 -39
-15 13 -3 38 1 43 23 29z m214 -123 c4 -78 -2 -97 -35 -114 -25 -13 -32 -13
-49 0 -21 14 -20 14 6 21 28 7 29 9 28 106 -1 67 -1 67 23 56 20 -9 24 -19 27
-69z m-296 52 c5 -6 7 -32 6 -60 -5 -70 -28 -58 -29 14 0 55 4 64 23 46z m184
-85 c-9 -8 -11 -2 -9 24 4 50 13 61 17 21 2 -18 -2 -39 -8 -45z m-84 50 c17
-13 19 -28 20 -129 0 -74 -3 -114 -10 -114 -6 0 -20 -3 -32 -7 -20 -6 -21 -4
-19 126 1 73 3 134 3 136 4 6 20 1 38 -12z m-229 -21 c0 -8 -4 -12 -9 -9 -5 3
-6 10 -3 15 9 13 12 11 12 -6z m50 -27 c-3 -8 -6 -5 -6 6 -1 11 2 17 5 13 3
-3 4 -12 1 -19z m-91 -14 c1 -9 0 -13 -4 -10 -3 4 -7 14 -8 22 -1 9 0 13 4 10
3 -4 7 -14 8 -22z m582 -30 c18 -31 31 -58 30 -59 -2 -1 -17 -7 -35 -13 l-31
-10 -4 69 c-2 38 -1 69 2 69 3 0 20 -25 38 -56z m-100 -59 c-1 -40 -5 -44 -48
-50 -44 -5 -41 28 5 49 19 9 35 21 35 26 0 6 2 10 5 10 2 0 4 -16 3 -35z m-97
-13 c0 -4 2 -15 4 -25 3 -15 -21 -37 -39 -37 -3 0 -6 20 -6 45 0 43 1 45 20
35 11 -6 20 -14 21 -18z m-345 -16 c0 -19 -4 -32 -8 -30 -4 3 -6 15 -4 27 3
12 5 25 5 30 1 4 3 7 5 7 2 0 3 -15 2 -34z m-49 2 c-3 -8 -6 -5 -6 6 -1 11 2
17 5 13 3 -3 4 -12 1 -19z m100 -20 c-3 -7 -5 -2 -5 12 0 14 2 19 5 13 2 -7 2
-19 0 -25z m-94 -13 c4 -8 3 -16 -1 -19 -4 -3 -9 4 -9 15 -2 23 3 25 10 4z
m717 -5 l24 -13 -24 -9 c-15 -6 -34 -5 -52 3 -21 8 -39 8 -76 -1 -47 -11 -79
-17 -93 -19 -4 -1 -10 -17 -13 -36 -4 -19 -12 -37 -18 -41 -8 -5 -9 -1 -4 12
17 41 18 54 4 54 -8 0 -22 -24 -33 -57 -10 -32 -22 -62 -27 -67 -4 -6 -8 -15
-8 -22 0 -18 -31 -87 -36 -81 -3 2 13 51 35 107 23 56 41 104 41 106 0 13 -31
0 -44 -18 -9 -12 -26 -23 -38 -25 -13 -2 -32 -4 -43 -6 -11 -1 -26 -6 -33 -10
-7 -5 -14 -2 -18 7 -4 10 -12 13 -27 7 -12 -4 -29 -7 -37 -6 -24 2 -39 -15
-34 -38 3 -12 7 -31 9 -42 2 -11 7 -30 11 -43 5 -18 2 -24 -15 -29 -11 -3 -19
-9 -16 -13 3 -5 0 -12 -6 -16 -8 -4 -9 -3 -5 4 4 7 1 12 -6 12 -10 0 -9 3 1 9
19 12 22 111 4 118 -10 4 -10 8 0 18 11 11 15 110 5 120 -2 2 -28 -3 -57 -11
-33 -10 -51 -20 -48 -28 3 -7 1 -19 -5 -27 -8 -11 -9 -11 -5 2 3 9 1 22 -3 30
-13 20 6 37 35 31 14 -2 25 0 25 4 0 11 48 10 72 0 14 -7 16 -16 11 -54 -4
-33 -3 -43 5 -38 7 4 20 9 30 11 10 2 47 10 83 19 35 9 73 17 84 19 11 1 25 5
30 9 6 3 37 12 70 19 33 7 65 14 70 15 6 2 26 6 45 10 19 3 41 9 49 14 19 10
50 7 81 -10z m-710 -38 c0 -13 -12 -22 -22 -16 -10 6 -1 24 13 24 5 0 9 -4 9
-8z m658 -4 c7 -10 3 -18 -14 -31 -24 -18 -24 -18 -33 5 -5 13 -7 26 -4 31 7
11 40 8 51 -5z m-705 -15 c-7 -2 -9 -12 -6 -21 4 -14 3 -15 -5 -2 -11 15 5 47
17 34 3 -4 1 -9 -6 -11z m134 -15 c-3 -8 -6 -5 -6 6 -1 11 2 17 5 13 3 -3 4
-12 1 -19z m-90 -13 c0 -8 -4 -12 -9 -9 -4 3 -8 9 -8 15 0 5 4 9 8 9 5 0 9 -7
9 -15z m737 -6 c22 -10 44 -39 30 -39 -13 0 -64 32 -64 40 0 13 4 12 34 -1z
m-698 -29 c0 -12 -4 -16 -9 -11 -5 5 -6 14 -3 20 10 15 12 14 12 -9z m480 -55
c19 -73 26 -155 13 -155 -6 0 -19 5 -30 10 -22 12 -43 4 -33 -12 4 -6 10 -5
15 3 7 11 9 11 9 1 0 -7 5 -10 10 -7 6 3 10 2 10 -3 0 -6 6 -10 13 -9 32 1 48
-4 42 -13 -5 -8 -12 -7 -22 1 -9 8 -17 9 -21 3 -11 -14 -32 -15 -32 -1 0 8 -3
7 -10 -3 -7 -12 -12 -12 -21 -3 -16 16 -21 43 -8 43 5 0 9 5 9 11 0 6 -7 9
-14 6 -29 -12 -27 33 6 117 18 47 37 81 41 77 5 -5 15 -34 23 -66z m-296 39
c0 -8 -5 -12 -10 -9 -6 4 -8 11 -5 16 9 14 15 11 15 -7z m40 -24 c5 0 10 4 10
8 0 5 20 13 45 19 52 12 53 9 28 -55 -10 -27 -21 -41 -29 -38 -7 3 -20 -1 -28
-10 -8 -8 -17 -10 -20 -5 -4 5 -1 11 6 13 13 5 3 58 -12 58 -6 0 -6 -9 0 -25
5 -14 7 -25 5 -25 -7 0 -23 43 -30 78 -5 25 -5 25 4 5 6 -13 15 -23 21 -23z
m472 24 c30 -16 31 -17 13 -30 -10 -8 -21 -18 -25 -23 -3 -6 -19 -3 -38 6
l-33 16 23 23 c28 28 23 27 60 8z m-306 -74 c-17 -44 -34 -80 -39 -80 -4 0 0
17 9 38 9 20 23 56 32 80 9 23 19 42 23 42 3 0 -8 -36 -25 -80z m-316 59 c0
-5 -4 -7 -10 -4 -5 3 -11 -2 -11 -12 -1 -15 -2 -15 -6 -2 -5 21 -43 13 -43 -8
0 -8 -4 -11 -10 -8 -20 12 -10 34 18 38 51 8 62 7 62 -4z m-107 -6 c4 -3 2
-12 -4 -19 -11 -14 -39 -8 -39 8 0 5 5 6 10 3 6 -3 10 -1 10 4 0 12 13 15 23
4z m211 -19 c10 -26 7 -34 -14 -34 -11 0 -20 7 -20 16 0 9 5 12 12 8 8 -5 9
-2 5 9 -3 10 -2 17 2 17 5 0 12 -7 15 -16z m462 -29 c10 -8 14 -15 7 -15 -6 0
-18 -3 -27 -6 -12 -4 -16 0 -16 15 0 25 9 26 36 6z m-639 -25 c-5 -31 -13 -32
-12 -1 0 16 3 27 7 25 4 -3 6 -14 5 -24z m223 -34 c0 -18 -17 8 -24 34 l-7 25
15 -25 c9 -14 15 -29 16 -34z m-44 9 c0 -13 -3 -22 -7 -19 -11 6 -39 -37 -32
-49 3 -6 1 -7 -5 -3 -7 4 -12 2 -12 -3 0 -6 3 -11 8 -11 4 0 8 -11 8 -25 1
-16 -3 -25 -13 -25 -8 0 -11 5 -7 12 5 8 1 9 -12 4 -15 -5 -16 -4 -7 5 6 6 9
18 6 25 -3 7 2 21 11 30 9 8 13 21 9 27 -3 7 -3 9 2 5 10 -10 38 19 30 32 -7
12 4 34 13 25 4 -3 7 -17 8 -30z m557 -1 c9 -4 17 -15 17 -26 0 -16 -3 -17
-22 -7 -36 18 -48 30 -42 41 3 5 11 7 17 4 7 -4 20 -9 30 -12z m-673 -19 c0 6
5 2 11 -8 6 -10 8 -21 5 -24 -3 -4 -6 -1 -6 6 0 7 -13 11 -35 9 -19 -1 -35 -6
-35 -10 0 -5 -11 -6 -24 -2 -20 5 -25 2 -28 -18 l-3 -23 -7 23 c-5 17 -2 25
10 28 9 3 24 9 33 14 10 5 21 4 27 -2 6 -6 14 -5 23 5 10 11 16 12 21 3 4 -6
8 -7 8 -1z m205 -25 c14 -11 20 -11 37 -1 11 7 17 8 13 2 -16 -27 -40 -29 -75
-5 -27 19 -30 24 -13 21 11 -1 29 -9 38 -17z m-89 -15 c-2 -13 0 -22 4 -20 5
3 6 -4 3 -14 -3 -11 -13 -19 -22 -18 -15 1 -16 6 -7 39 11 43 26 51 22 13z
m538 12 c17 -12 16 -14 -6 -23 -16 -8 -31 -7 -52 1 l-29 12 29 11 c39 14 38
14 58 -1z m-342 -43 c5 -46 -5 -43 -18 5 -8 30 -8 38 2 34 6 -2 14 -20 16 -39z
m-312 32 c0 -2 -7 -6 -15 -10 -8 -3 -15 -1 -15 4 0 6 7 10 15 10 8 0 15 -2 15
-4z m245 -35 c3 -10 5 -23 4 -27 -1 -5 4 -23 10 -41 l13 -32 66 6 c37 3 64 2
60 -2 -8 -8 -37 -12 -100 -14 -61 -2 -60 -35 7 -225 30 -88 54 -164 52 -170
-2 -6 -9 5 -15 24 -25 86 -94 276 -103 285 -6 5 -9 5 -9 -3 0 -7 -4 -12 -10
-12 -14 0 -12 28 2 32 15 5 18 128 4 171 -5 17 -5 27 2 27 6 0 13 -9 17 -19z
m358 -10 c-2 -6 2 -11 9 -11 21 0 -1 -13 -27 -16 -14 -1 -26 2 -26 7 -1 5 -2
15 -3 22 -1 6 -1 15 1 19 6 11 48 -9 46 -21z m-618 9 c3 -6 -1 -7 -9 -4 -18 7
-21 14 -7 14 6 0 13 -4 16 -10z m195 -4 c0 -3 -4 -8 -10 -11 -5 -3 -10 -1 -10
4 0 6 5 11 10 11 6 0 10 -2 10 -4z m-244 -26 c0 -12 -4 -16 -9 -11 -5 5 -6 14
-3 20 10 15 12 14 12 -9z m165 -51 c-10 -4 -4 -8 17 -12 23 -5 32 -12 32 -27
0 -13 -7 -20 -20 -20 -11 0 -20 -5 -20 -11 0 -8 -5 -8 -15 1 -23 19 -18 30 12
30 37 0 19 14 -22 16 -47 3 -67 15 -55 34 6 9 13 11 18 5 10 -13 35 -18 27 -5
-3 5 -1 10 4 10 6 0 11 8 11 18 0 12 4 10 13 -8 11 -21 11 -26 -2 -31z m384
14 c14 -21 25 -42 25 -48 0 -5 -12 7 -26 28 -20 30 -28 36 -39 27 -11 -9 -12
-7 -8 9 8 30 19 26 48 -16z m-585 23 c0 -3 -4 -8 -10 -11 -5 -3 -10 -1 -10 4
0 6 5 11 10 11 6 0 10 -2 10 -4z m12 -47 l-5 -31 74 4 c71 3 75 2 98 -25 13
-15 26 -26 29 -23 9 10 77 -25 100 -51 25 -29 28 -38 10 -27 -7 5 -1 -7 15
-25 19 -23 27 -44 27 -70 0 -21 11 -65 25 -99 14 -34 25 -74 25 -89 -1 -35
-34 -77 -55 -69 -8 3 -15 1 -15 -3 0 -11 -19 -9 -39 3 -10 6 -12 5 -7 -2 10
-17 -26 -2 -42 17 -8 9 -10 10 -7 3 10 -19 -26 0 -45 23 -18 21 -23 55 -9 55
5 0 7 -5 3 -12 -4 -6 -3 -8 4 -5 19 13 6 42 -19 42 -19 0 -27 -8 -37 -39 -14
-45 -9 -55 50 -93 47 -29 116 -40 148 -23 12 7 20 7 16 2 -3 -6 -18 -14 -33
-19 -81 -28 -170 17 -236 120 -21 33 -64 144 -72 184 -3 15 -7 39 -10 53 -12
57 -15 203 -4 217 16 18 16 17 11 -18z m761 20 c16 -7 23 -17 20 -29 -4 -15
-9 -16 -34 -7 -17 7 -29 19 -29 29 0 21 10 22 43 7z m-228 -19 c3 -5 0 -7 -8
-4 -8 3 -17 -2 -21 -11 -7 -19 1 -38 14 -30 11 7 18 -15 15 -45 -2 -14 -6 -50
-9 -80 -8 -70 -13 -96 -23 -114 -9 -16 -9 255 0 279 7 17 23 20 32 5z m205
-36 c0 -2 -12 -4 -26 -4 -14 0 -23 4 -20 9 6 8 46 4 46 -5z m-257 -71 c3 -45
1 -61 -7 -56 -8 5 -8 3 -1 -8 6 -8 10 -45 9 -84 -1 -38 2 -75 7 -82 7 -7 6
-14 -1 -18 -5 -3 -13 2 -16 12 -3 10 -12 34 -19 53 -7 19 -13 38 -14 42 -2 11
-11 40 -20 63 -5 11 -3 35 5 55 7 19 13 45 13 57 1 16 24 35 37 29 1 -1 4 -29
7 -63z m213 57 c8 0 14 -10 14 -24 0 -20 -5 -23 -32 -22 -27 1 -32 5 -31 24 1
34 2 35 19 28 9 -3 22 -6 30 -6z m-290 -17 c-18 -61 -17 -75 12 -155 44 -121
45 -126 29 -98 -8 14 -28 64 -45 111 -27 75 -29 90 -19 122 7 20 16 37 20 37
5 0 6 -8 3 -17z m199 -2 c3 -5 2 -12 -3 -15 -5 -3 -9 1 -9 9 0 17 3 19 12 6z
m0 -40 c3 -5 2 -12 -3 -15 -5 -3 -9 1 -9 9 0 17 3 19 12 6z m132 -20 c14 -8
15 -10 3 -11 -25 0 -60 12 -60 21 0 10 33 4 57 -10z m33 -36 c19 -12 -1 -33
-28 -29 -33 6 -36 9 -29 28 6 14 35 15 57 1z m-803 -17 c-3 -8 -6 -5 -6 6 -1
11 2 17 5 13 3 -3 4 -12 1 -19z m638 13 c3 -5 2 -12 -3 -15 -5 -3 -9 1 -9 9 0
17 3 19 12 6z m69 -31 c33 -12 25 -42 -10 -37 -30 4 -38 12 -31 32 7 18 8 18
41 5z m-68 -54 c-2 -38 -12 -39 -12 -1 0 18 3 32 7 30 3 -3 5 -15 5 -29z m110
-27 l25 -26 -28 5 c-28 5 -63 28 -63 43 0 17 42 3 66 -22z m-786 11 c0 -5 -8
-10 -17 -10 -15 0 -16 2 -3 10 19 12 20 12 20 0z m675 -39 c-3 -5 9 -21 27
-35 l33 -26 -32 0 c-26 0 -31 -3 -27 -17 4 -12 3 -14 -3 -6 -5 7 -8 29 -7 50
2 44 2 43 10 43 3 0 3 -4 -1 -9z m145 -32 c0 -11 -26 -18 -49 -12 -23 6 -28
29 -8 36 14 5 57 -13 57 -24z m-783 -21 c-3 -8 -6 -5 -6 6 -1 11 2 17 5 13 3
-3 4 -12 1 -19z m507 -3 c3 -8 1 -15 -3 -15 -5 0 -11 7 -15 15 -3 8 -1 15 3
15 5 0 11 -7 15 -15z m207 -51 c25 -38 24 -44 -6 -44 -27 0 -61 41 -52 64 9
22 36 13 58 -20z m-721 11 c0 -8 -7 -15 -16 -15 -14 0 -14 3 -4 15 7 8 14 15
16 15 2 0 4 -7 4 -15z m646 -37 c-1 -13 -5 -28 -9 -34 -8 -13 -57 -16 -57 -3
0 15 21 21 35 9 16 -13 23 -4 20 32 -1 15 1 25 5 23 4 -2 6 -15 6 -27z m-109
7 c0 -8 -4 -12 -9 -9 -5 3 -6 10 -3 15 9 13 12 11 12 -6z m-2 -34 c3 -5 2 -12
-3 -15 -5 -3 -9 1 -9 9 0 17 3 19 12 6z m205 -26 c-15 -18 -51 -16 -57 2 -3 7
9 13 29 15 41 4 44 2 28 -17z m-204 -31 c1 -9 0 -13 -4 -10 -3 4 -7 14 -8 22
-1 9 0 13 4 10 3 -4 7 -14 8 -22z m96 -20 c2 -19 0 -37 -4 -40 -4 -3 -5 -16
-2 -30 3 -13 5 -24 3 -25 -85 -12 -88 -11 -84 10 2 14 -1 21 -11 21 -10 0 -14
-8 -12 -22 6 -42 104 -42 123 0 11 24 25 29 25 9 0 -35 -28 -52 -84 -52 -63 0
-94 20 -81 52 5 10 8 20 7 23 0 3 8 6 19 6 10 0 19 -5 19 -11 0 -5 5 -3 10 5
9 13 10 13 10 0 0 -13 1 -13 10 0 5 8 10 10 10 4 0 -7 7 -15 16 -18 14 -5 15
-4 4 9 -9 10 -9 15 -1 15 7 0 4 15 -9 39 -18 37 -18 40 -2 44 25 5 29 1 34
-39z m-562 32 c0 -2 3 -11 6 -20 4 -11 0 -16 -14 -16 -20 0 -36 23 -25 34 7 7
33 8 33 2z m588 -8 c1 -7 4 -25 8 -40 4 -17 2 -28 -4 -28 -10 0 -22 67 -13 75
7 7 8 6 9 -7z m-510 -86 c19 -13 3 -42 -24 -42 -22 0 -23 2 -12 25 12 27 16
29 36 17z m302 -42 c0 -5 -7 -10 -16 -10 -8 0 -12 5 -9 10 3 6 10 10 16 10 5
0 9 -4 9 -10z m-216 -16 c9 -3 16 -18 16 -33 0 -21 -5 -26 -26 -26 -20 0 -24
4 -20 20 3 11 6 26 6 33 0 14 2 14 24 6z m120 -46 c-1 -28 -5 -33 -27 -36 -23
-3 -27 0 -23 20 3 13 5 29 5 36 1 6 11 12 24 12 18 0 22 -5 21 -32z m123 3
c13 -36 7 -46 -32 -49 -29 -3 -30 -2 -28 35 1 21 2 39 2 41 1 1 11 2 24 2 16
0 26 -9 34 -29z m75 7 c-9 -9 -15 -9 -24 0 -9 9 -7 12 12 12 19 0 21 -3 12
-12z"/>
<path d="M537 742 c-15 -3 -16 -12 -12 -75 6 -81 7 -85 24 -147 15 -57 64
-169 73 -170 7 0 40 55 44 73 1 4 2 10 3 13 0 3 11 -2 22 -10 12 -8 28 -12 37
-9 10 4 13 2 8 -5 -5 -8 0 -11 15 -9 13 2 25 9 27 15 2 7 10 12 18 12 8 0 14
5 14 12 0 6 -3 8 -7 5 -3 -4 -12 -2 -20 4 -9 9 -13 8 -13 0 0 -6 -15 -11 -32
-10 -18 0 -27 3 -20 6 6 2 9 10 6 15 -4 6 -3 9 2 5 5 -3 16 0 25 6 16 12 19
18 19 36 0 5 7 11 14 14 11 4 13 1 9 -11 -4 -12 1 -10 17 6 18 19 24 21 31 10
13 -20 11 -31 -6 -24 -13 4 -14 2 -5 -14 6 -11 13 -20 16 -20 3 0 3 4 -1 9 -3
5 -1 12 4 16 6 3 8 22 5 42 -5 43 -23 58 -113 95 -72 29 -100 63 -81 98 10 19
8 20 -47 18 -32 -1 -66 -3 -76 -6z m103 -24 c0 -15 -40 -49 -51 -43 -14 9 -7
39 11 46 20 8 40 7 40 -3z m10 -41 c0 -8 9 -22 20 -32 18 -17 19 -20 5 -41 -8
-13 -15 -32 -15 -44 0 -11 -4 -20 -10 -20 -5 0 -8 20 -6 44 l3 43 -29 -11
c-16 -6 -24 -12 -18 -14 16 -6 12 -32 -6 -32 -9 0 -14 -7 -12 -17 2 -10 11
-18 19 -18 42 -1 59 -48 25 -69 -20 -13 -33 5 -52 64 -9 27 -8 45 4 80 19 56
72 105 72 67z m-17 -92 c-7 -21 -13 -19 -13 6 0 11 4 18 10 14 5 -3 7 -12 3
-20z m117 15 c0 -5 -4 -10 -10 -10 -5 0 -10 5 -10 10 0 6 5 10 10 10 6 0 10
-4 10 -10z m55 -31 c-3 -12 -7 -24 -11 -28 -4 -3 -4 2 -1 11 4 11 0 21 -11 27
-15 9 -14 10 5 11 17 0 21 -5 18 -21z m21 -26 c-10 -10 -19 5 -10 18 6 11 8
11 12 0 2 -7 1 -15 -2 -18z m-180 -115 c4 -7 4 -10 -1 -6 -4 4 -14 0 -22 -10
-13 -15 -13 -15 -3 6 12 25 16 27 26 10z"/>
<path d="M683 716 c4 -10 7 -21 7 -26 0 -4 9 -10 20 -13 11 -3 20 -1 20 4 0 5
-7 9 -15 9 -8 0 -15 6 -15 14 0 8 -5 18 -12 22 -8 5 -9 2 -5 -10z"/>
<path d="M770 661 c0 -9 30 -24 36 -18 2 1 -6 8 -16 15 -11 7 -20 8 -20 3z"/>
<path d="M802 478 c-17 -17 -15 -24 8 -25 21 -2 24 5 12 24 -6 10 -11 10 -20
1z"/>
<path d="M715 330 c21 -24 26 -25 19 -6 -3 8 -13 17 -22 21 -13 5 -13 2 3 -15z"/>
<path d="M1030 166 c0 -9 30 -14 35 -6 4 6 -3 10 -14 10 -12 0 -21 -2 -21 -4z"/>
<path d="M398 1025 c-5 -22 25 -65 45 -65 10 0 3 74 -8 82 -19 14 -33 8 -37
-17z"/>
<path d="M410 911 c-29 -5 -36 -11 -38 -33 -2 -19 3 -30 18 -38 21 -11 21 -12
4 -31 -10 -11 -12 -19 -6 -19 7 0 12 4 12 9 0 6 13 18 29 27 22 13 28 22 22
33 -5 9 -7 26 -5 39 2 12 3 21 1 21 -1 -1 -18 -4 -37 -8z"/>
<path d="M393 340 c-1 -11 2 -20 5 -20 4 0 8 9 9 20 1 11 -2 20 -5 20 -4 0 -8
-9 -9 -20z"/>
</g>
</svg>
